<svg xmlns="http://www.w3.org/2000/svg" version="1.1" width="500" height="500">

<rect x="0" y="0" width="500" height="500" style="stroke:#000;fill:none" />

<line x1="250" y1="0" x2="12" y2="173" style="stroke:#000" />

<line x1="12" y1="173" x2="103" y2="452" style="stroke:#000" />

<line x1="103" y1="452" x2="397" y2="452" style="stroke:#000" />

<line x1="397" y1="452" x2="488" y2="173" style="stroke:#000" />

<line x1="488" y1="173" x2="250" y2="0" style="stroke:#000" />

<line x1="238" y1="13" x2="21" y2="188" style="stroke:#000" />

<line x1="227" y1="26" x2="30" y2="202" style="stroke:#000" />

<line x1="218" y1="38" x2="39" y2="215" style="stroke:#000" />

<line x1="210" y1="50" x2="48" y2="227" style="stroke:#000" />

<line x1="202" y1="63" x2="57" y2="238" style="stroke:#000" />

<line x1="196" y1="74" x2="66" y2="247" style="stroke:#000" />

<line x1="190" y1="86" x2="76" y2="256" style="stroke:#000" />

<line x1="185" y1="97" x2="85" y2="264" style="stroke:#000" />

<line x1="181" y1="108" x2="94" y2="271" style="stroke:#000" />

<line x1="178" y1="119" x2="103" y2="278" style="stroke:#000" />

<line x1="176" y1="129" x2="112" y2="283" style="stroke:#000" />

<line x1="174" y1="139" x2="120" y2="288" style="stroke:#000" />

<line x1="172" y1="148" x2="129" y2="292" style="stroke:#000" />

<line x1="171" y1="157" x2="137" y2="296" style="stroke:#000" />

<line x1="171" y1="165" x2="145" y2="299" style="stroke:#000" />

<line x1="171" y1="173" x2="153" y2="301" style="stroke:#000" />

<line x1="171" y1="181" x2="160" y2="303" style="stroke:#000" />

<line x1="172" y1="188" x2="167" y2="305" style="stroke:#000" />

<line x1="173" y1="195" x2="174" y2="306" style="stroke:#000" />

<line x1="175" y1="202" x2="181" y2="307" style="stroke:#000" />

<line x1="176" y1="208" x2="187" y2="307" style="stroke:#000" />

<line x1="178" y1="213" x2="193" y2="307" style="stroke:#000" />

<line x1="180" y1="219" x2="198" y2="307" style="stroke:#000" />

<line x1="182" y1="224" x2="204" y2="307" style="stroke:#000" />

<line x1="184" y1="228" x2="209" y2="306" style="stroke:#000" />

<line x1="187" y1="232" x2="214" y2="305" style="stroke:#000" />

<line x1="189" y1="236" x2="218" y2="304" style="stroke:#000" />

<line x1="191" y1="240" x2="222" y2="303" style="stroke:#000" />

<line x1="194" y1="243" x2="226" y2="301" style="stroke:#000" />

<line x1="196" y1="246" x2="230" y2="300" style="stroke:#000" />

<line x1="199" y1="249" x2="233" y2="298" style="stroke:#000" />

<line x1="202" y1="251" x2="236" y2="296" style="stroke:#000" />

<line x1="204" y1="254" x2="239" y2="295" style="stroke:#000" />

<line x1="207" y1="256" x2="242" y2="293" style="stroke:#000" />

<line x1="209" y1="257" x2="244" y2="291" style="stroke:#000" />

<line x1="212" y1="259" x2="247" y2="289" style="stroke:#000" />

<line x1="214" y1="260" x2="249" y2="287" style="stroke:#000" />

<line x1="216" y1="262" x2="251" y2="286" style="stroke:#000" />

<line x1="219" y1="263" x2="252" y2="284" style="stroke:#000" />

<line x1="221" y1="263" x2="254" y2="282" style="stroke:#000" />

<line x1="223" y1="264" x2="255" y2="280" style="stroke:#000" />

<line x1="225" y1="265" x2="256" y2="278" style="stroke:#000" />

<line x1="227" y1="265" x2="257" y2="277" style="stroke:#000" />

<line x1="229" y1="265" x2="258" y2="275" style="stroke:#000" />

<line x1="231" y1="266" x2="259" y2="273" style="stroke:#000" />

<line x1="232" y1="266" x2="260" y2="272" style="stroke:#000" />

<line x1="234" y1="266" x2="260" y2="270" style="stroke:#000" />

<line x1="236" y1="266" x2="260" y2="269" style="stroke:#000" />

<line x1="237" y1="266" x2="261" y2="267" style="stroke:#000" />

<line x1="238" y1="265" x2="261" y2="266" style="stroke:#000" />

<line x1="240" y1="265" x2="261" y2="264" style="stroke:#000" />

<line x1="241" y1="265" x2="261" y2="263" style="stroke:#000" />

<line x1="242" y1="265" x2="261" y2="262" style="stroke:#000" />

<line x1="243" y1="264" x2="261" y2="261" style="stroke:#000" />

<line x1="244" y1="264" x2="261" y2="260" style="stroke:#000" />

<line x1="245" y1="263" x2="261" y2="259" style="stroke:#000" />

<line x1="246" y1="263" x2="261" y2="258" style="stroke:#000" />

<line x1="247" y1="262" x2="261" y2="257" style="stroke:#000" />

<line x1="248" y1="262" x2="261" y2="256" style="stroke:#000" />

<line x1="248" y1="261" x2="260" y2="255" style="stroke:#000" />

<line x1="249" y1="261" x2="260" y2="254" style="stroke:#000" />

<line x1="250" y1="260" x2="260" y2="254" style="stroke:#000" />

<line x1="250" y1="260" x2="259" y2="253" style="stroke:#000" />

<line x1="251" y1="259" x2="259" y2="252" style="stroke:#000" />

<line x1="251" y1="259" x2="259" y2="252" style="stroke:#000" />

<line x1="251" y1="258" x2="258" y2="251" style="stroke:#000" />

<line x1="252" y1="258" x2="258" y2="251" style="stroke:#000" />

<line x1="252" y1="257" x2="258" y2="250" style="stroke:#000" />

<line x1="252" y1="257" x2="257" y2="250" style="stroke:#000" />

<line x1="252" y1="256" x2="257" y2="250" style="stroke:#000" />

<line x1="253" y1="256" x2="257" y2="249" style="stroke:#000" />

<line x1="253" y1="256" x2="256" y2="249" style="stroke:#000" />

<line x1="253" y1="255" x2="256" y2="249" style="stroke:#000" />

<line x1="253" y1="255" x2="255" y2="249" style="stroke:#000" />

<line x1="253" y1="254" x2="255" y2="248" style="stroke:#000" />

<line x1="253" y1="254" x2="255" y2="248" style="stroke:#000" />

<line x1="253" y1="254" x2="254" y2="248" style="stroke:#000" />

<line x1="253" y1="253" x2="254" y2="248" style="stroke:#000" />

<line x1="253" y1="253" x2="254" y2="248" style="stroke:#000" />

<line x1="253" y1="253" x2="254" y2="248" style="stroke:#000" />

<line x1="253" y1="252" x2="253" y2="248" style="stroke:#000" />

<line x1="253" y1="252" x2="253" y2="248" style="stroke:#000" />

<line x1="253" y1="252" x2="253" y2="248" style="stroke:#000" />

<line x1="253" y1="252" x2="252" y2="248" style="stroke:#000" />

<line x1="253" y1="251" x2="252" y2="248" style="stroke:#000" />

<line x1="253" y1="251" x2="252" y2="248" style="stroke:#000" />

<line x1="253" y1="251" x2="252" y2="248" style="stroke:#000" />

<line x1="253" y1="251" x2="252" y2="248" style="stroke:#000" />

<line x1="253" y1="251" x2="251" y2="248" style="stroke:#000" />

<line x1="252" y1="251" x2="251" y2="248" style="stroke:#000" />

<line x1="252" y1="250" x2="251" y2="248" style="stroke:#000" />

<line x1="252" y1="250" x2="251" y2="248" style="stroke:#000" />

<line x1="252" y1="250" x2="251" y2="248" style="stroke:#000" />

<line x1="252" y1="250" x2="251" y2="248" style="stroke:#000" />

<line x1="252" y1="250" x2="251" y2="248" style="stroke:#000" />

<line x1="252" y1="250" x2="250" y2="248" style="stroke:#000" />

<line x1="252" y1="250" x2="250" y2="248" style="stroke:#000" />

<line x1="252" y1="250" x2="250" y2="248" style="stroke:#000" />

<line x1="252" y1="250" x2="250" y2="248" style="stroke:#000" />

<line x1="251" y1="250" x2="250" y2="249" style="stroke:#000" />

<line x1="21" y1="188" x2="120" y2="449" style="stroke:#000" />

<line x1="30" y1="202" x2="136" y2="445" style="stroke:#000" />

<line x1="39" y1="215" x2="151" y2="440" style="stroke:#000" />

<line x1="48" y1="227" x2="165" y2="435" style="stroke:#000" />

<line x1="57" y1="238" x2="179" y2="430" style="stroke:#000" />

<line x1="66" y1="247" x2="191" y2="424" style="stroke:#000" />

<line x1="76" y1="256" x2="202" y2="418" style="stroke:#000" />

<line x1="85" y1="264" x2="212" y2="412" style="stroke:#000" />

<line x1="94" y1="271" x2="222" y2="405" style="stroke:#000" />

<line x1="103" y1="278" x2="231" y2="398" style="stroke:#000" />

<line x1="112" y1="283" x2="239" y2="392" style="stroke:#000" />

<line x1="120" y1="288" x2="246" y2="385" style="stroke:#000" />

<line x1="129" y1="292" x2="253" y2="378" style="stroke:#000" />

<line x1="137" y1="296" x2="259" y2="372" style="stroke:#000" />

<line x1="145" y1="299" x2="264" y2="365" style="stroke:#000" />

<line x1="153" y1="301" x2="269" y2="358" style="stroke:#000" />

<line x1="160" y1="303" x2="273" y2="352" style="stroke:#000" />

<line x1="167" y1="305" x2="277" y2="346" style="stroke:#000" />

<line x1="174" y1="306" x2="280" y2="339" style="stroke:#000" />

<line x1="181" y1="307" x2="283" y2="334" style="stroke:#000" />

<line x1="187" y1="307" x2="285" y2="328" style="stroke:#000" />

<line x1="193" y1="307" x2="287" y2="322" style="stroke:#000" />

<line x1="198" y1="307" x2="288" y2="317" style="stroke:#000" />

<line x1="204" y1="307" x2="289" y2="311" style="stroke:#000" />

<line x1="209" y1="306" x2="290" y2="306" style="stroke:#000" />

<line x1="214" y1="305" x2="291" y2="302" style="stroke:#000" />

<line x1="218" y1="304" x2="291" y2="297" style="stroke:#000" />

<line x1="222" y1="303" x2="291" y2="293" style="stroke:#000" />

<line x1="226" y1="301" x2="291" y2="288" style="stroke:#000" />

<line x1="230" y1="300" x2="291" y2="285" style="stroke:#000" />

<line x1="233" y1="298" x2="291" y2="281" style="stroke:#000" />

<line x1="236" y1="296" x2="290" y2="277" style="stroke:#000" />

<line x1="239" y1="295" x2="289" y2="274" style="stroke:#000" />

<line x1="242" y1="293" x2="288" y2="271" style="stroke:#000" />

<line x1="244" y1="291" x2="287" y2="268" style="stroke:#000" />

<line x1="247" y1="289" x2="286" y2="265" style="stroke:#000" />

<line x1="249" y1="287" x2="285" y2="263" style="stroke:#000" />

<line x1="251" y1="286" x2="284" y2="260" style="stroke:#000" />

<line x1="252" y1="284" x2="283" y2="258" style="stroke:#000" />

<line x1="254" y1="282" x2="281" y2="256" style="stroke:#000" />

<line x1="255" y1="280" x2="280" y2="255" style="stroke:#000" />

<line x1="256" y1="278" x2="279" y2="253" style="stroke:#000" />

<line x1="257" y1="277" x2="278" y2="251" style="stroke:#000" />

<line x1="258" y1="275" x2="276" y2="250" style="stroke:#000" />

<line x1="259" y1="273" x2="275" y2="249" style="stroke:#000" />

<line x1="260" y1="272" x2="273" y2="248" style="stroke:#000" />

<line x1="260" y1="270" x2="272" y2="247" style="stroke:#000" />

<line x1="260" y1="269" x2="271" y2="246" style="stroke:#000" />

<line x1="261" y1="267" x2="270" y2="245" style="stroke:#000" />

<line x1="261" y1="266" x2="268" y2="244" style="stroke:#000" />

<line x1="261" y1="264" x2="267" y2="244" style="stroke:#000" />

<line x1="261" y1="263" x2="266" y2="243" style="stroke:#000" />

<line x1="261" y1="262" x2="265" y2="243" style="stroke:#000" />

<line x1="261" y1="261" x2="264" y2="242" style="stroke:#000" />

<line x1="261" y1="260" x2="263" y2="242" style="stroke:#000" />

<line x1="261" y1="259" x2="262" y2="242" style="stroke:#000" />

<line x1="261" y1="258" x2="261" y2="242" style="stroke:#000" />

<line x1="261" y1="257" x2="260" y2="242" style="stroke:#000" />

<line x1="261" y1="256" x2="259" y2="242" style="stroke:#000" />

<line x1="260" y1="255" x2="258" y2="242" style="stroke:#000" />

<line x1="260" y1="254" x2="257" y2="242" style="stroke:#000" />

<line x1="260" y1="254" x2="256" y2="242" style="stroke:#000" />

<line x1="259" y1="253" x2="256" y2="242" style="stroke:#000" />

<line x1="259" y1="252" x2="255" y2="242" style="stroke:#000" />

<line x1="259" y1="252" x2="254" y2="242" style="stroke:#000" />

<line x1="258" y1="251" x2="254" y2="242" style="stroke:#000" />

<line x1="258" y1="251" x2="253" y2="243" style="stroke:#000" />

<line x1="258" y1="250" x2="253" y2="243" style="stroke:#000" />

<line x1="257" y1="250" x2="252" y2="243" style="stroke:#000" />

<line x1="257" y1="250" x2="252" y2="243" style="stroke:#000" />

<line x1="257" y1="249" x2="251" y2="244" style="stroke:#000" />

<line x1="256" y1="249" x2="251" y2="244" style="stroke:#000" />

<line x1="256" y1="249" x2="251" y2="244" style="stroke:#000" />

<line x1="255" y1="249" x2="250" y2="244" style="stroke:#000" />

<line x1="255" y1="248" x2="250" y2="245" style="stroke:#000" />

<line x1="255" y1="248" x2="250" y2="245" style="stroke:#000" />

<line x1="254" y1="248" x2="250" y2="245" style="stroke:#000" />

<line x1="254" y1="248" x2="249" y2="245" style="stroke:#000" />

<line x1="254" y1="248" x2="249" y2="246" style="stroke:#000" />

<line x1="254" y1="248" x2="249" y2="246" style="stroke:#000" />

<line x1="253" y1="248" x2="249" y2="246" style="stroke:#000" />

<line x1="253" y1="248" x2="249" y2="246" style="stroke:#000" />

<line x1="253" y1="248" x2="249" y2="247" style="stroke:#000" />

<line x1="252" y1="248" x2="249" y2="247" style="stroke:#000" />

<line x1="252" y1="248" x2="249" y2="247" style="stroke:#000" />

<line x1="252" y1="248" x2="248" y2="247" style="stroke:#000" />

<line x1="252" y1="248" x2="248" y2="248" style="stroke:#000" />

<line x1="252" y1="248" x2="248" y2="248" style="stroke:#000" />

<line x1="251" y1="248" x2="248" y2="248" style="stroke:#000" />

<line x1="251" y1="248" x2="248" y2="248" style="stroke:#000" />

<line x1="251" y1="248" x2="248" y2="248" style="stroke:#000" />

<line x1="251" y1="248" x2="248" y2="248" style="stroke:#000" />

<line x1="251" y1="248" x2="248" y2="249" style="stroke:#000" />

<line x1="251" y1="248" x2="248" y2="249" style="stroke:#000" />

<line x1="251" y1="248" x2="248" y2="249" style="stroke:#000" />

<line x1="250" y1="248" x2="248" y2="249" style="stroke:#000" />

<line x1="250" y1="248" x2="248" y2="249" style="stroke:#000" />

<line x1="250" y1="248" x2="249" y2="249" style="stroke:#000" />

<line x1="250" y1="248" x2="249" y2="249" style="stroke:#000" />

<line x1="250" y1="249" x2="249" y2="250" style="stroke:#000" />

<line x1="120" y1="449" x2="399" y2="435" style="stroke:#000" />

<line x1="136" y1="445" x2="400" y2="418" style="stroke:#000" />

<line x1="151" y1="440" x2="400" y2="403" style="stroke:#000" />

<line x1="165" y1="435" x2="400" y2="388" style="stroke:#000" />

<line x1="179" y1="430" x2="399" y2="374" style="stroke:#000" />

<line x1="191" y1="424" x2="397" y2="360" style="stroke:#000" />

<line x1="202" y1="418" x2="395" y2="347" style="stroke:#000" />

<line x1="212" y1="412" x2="392" y2="336" style="stroke:#000" />

<line x1="222" y1="405" x2="389" y2="324" style="stroke:#000" />

<line x1="231" y1="398" x2="385" y2="314" style="stroke:#000" />

<line x1="239" y1="392" x2="381" y2="304" style="stroke:#000" />

<line x1="246" y1="385" x2="377" y2="295" style="stroke:#000" />

<line x1="253" y1="378" x2="373" y2="287" style="stroke:#000" />

<line x1="259" y1="372" x2="368" y2="279" style="stroke:#000" />

<line x1="264" y1="365" x2="364" y2="272" style="stroke:#000" />

<line x1="269" y1="358" x2="359" y2="266" style="stroke:#000" />

<line x1="273" y1="352" x2="354" y2="260" style="stroke:#000" />

<line x1="277" y1="346" x2="349" y2="254" style="stroke:#000" />

<line x1="280" y1="339" x2="344" y2="249" style="stroke:#000" />

<line x1="283" y1="334" x2="339" y2="245" style="stroke:#000" />

<line x1="285" y1="328" x2="335" y2="241" style="stroke:#000" />

<line x1="287" y1="322" x2="330" y2="237" style="stroke:#000" />

<line x1="288" y1="317" x2="325" y2="234" style="stroke:#000" />

<line x1="289" y1="311" x2="321" y2="231" style="stroke:#000" />

<line x1="290" y1="306" x2="316" y2="229" style="stroke:#000" />

<line x1="291" y1="302" x2="312" y2="227" style="stroke:#000" />

<line x1="291" y1="297" x2="307" y2="225" style="stroke:#000" />

<line x1="291" y1="293" x2="303" y2="224" style="stroke:#000" />

<line x1="291" y1="288" x2="299" y2="223" style="stroke:#000" />

<line x1="291" y1="285" x2="296" y2="222" style="stroke:#000" />

<line x1="291" y1="281" x2="292" y2="221" style="stroke:#000" />

<line x1="290" y1="277" x2="288" y2="220" style="stroke:#000" />

<line x1="289" y1="274" x2="285" y2="220" style="stroke:#000" />

<line x1="288" y1="271" x2="282" y2="220" style="stroke:#000" />

<line x1="287" y1="268" x2="279" y2="220" style="stroke:#000" />

<line x1="286" y1="265" x2="276" y2="220" style="stroke:#000" />

<line x1="285" y1="263" x2="273" y2="220" style="stroke:#000" />

<line x1="284" y1="260" x2="270" y2="221" style="stroke:#000" />

<line x1="283" y1="258" x2="268" y2="221" style="stroke:#000" />

<line x1="281" y1="256" x2="266" y2="222" style="stroke:#000" />

<line x1="280" y1="255" x2="264" y2="223" style="stroke:#000" />

<line x1="279" y1="253" x2="262" y2="223" style="stroke:#000" />

<line x1="278" y1="251" x2="260" y2="224" style="stroke:#000" />

<line x1="276" y1="250" x2="258" y2="225" style="stroke:#000" />

<line x1="275" y1="249" x2="256" y2="226" style="stroke:#000" />

<line x1="273" y1="248" x2="255" y2="227" style="stroke:#000" />

<line x1="272" y1="247" x2="254" y2="228" style="stroke:#000" />

<line x1="271" y1="246" x2="252" y2="229" style="stroke:#000" />

<line x1="270" y1="245" x2="251" y2="230" style="stroke:#000" />

<line x1="268" y1="244" x2="250" y2="231" style="stroke:#000" />

<line x1="267" y1="244" x2="249" y2="232" style="stroke:#000" />

<line x1="266" y1="243" x2="248" y2="233" style="stroke:#000" />

<line x1="265" y1="243" x2="248" y2="234" style="stroke:#000" />

<line x1="264" y1="242" x2="247" y2="235" style="stroke:#000" />

<line x1="263" y1="242" x2="247" y2="236" style="stroke:#000" />

<line x1="262" y1="242" x2="246" y2="236" style="stroke:#000" />

<line x1="261" y1="242" x2="246" y2="237" style="stroke:#000" />

<line x1="260" y1="242" x2="245" y2="238" style="stroke:#000" />

<line x1="259" y1="242" x2="245" y2="239" style="stroke:#000" />

<line x1="258" y1="242" x2="245" y2="240" style="stroke:#000" />

<line x1="257" y1="242" x2="244" y2="241" style="stroke:#000" />

<line x1="256" y1="242" x2="244" y2="241" style="stroke:#000" />

<line x1="256" y1="242" x2="244" y2="242" style="stroke:#000" />

<line x1="255" y1="242" x2="244" y2="243" style="stroke:#000" />

<line x1="254" y1="242" x2="244" y2="243" style="stroke:#000" />

<line x1="254" y1="242" x2="244" y2="244" style="stroke:#000" />

<line x1="253" y1="243" x2="244" y2="245" style="stroke:#000" />

<line x1="253" y1="243" x2="244" y2="245" style="stroke:#000" />

<line x1="252" y1="243" x2="244" y2="246" style="stroke:#000" />

<line x1="252" y1="243" x2="244" y2="246" style="stroke:#000" />

<line x1="251" y1="244" x2="244" y2="247" style="stroke:#000" />

<line x1="251" y1="244" x2="244" y2="247" style="stroke:#000" />

<line x1="251" y1="244" x2="245" y2="248" style="stroke:#000" />

<line x1="250" y1="244" x2="245" y2="248" style="stroke:#000" />

<line x1="250" y1="245" x2="245" y2="248" style="stroke:#000" />

<line x1="250" y1="245" x2="245" y2="249" style="stroke:#000" />

<line x1="250" y1="245" x2="245" y2="249" style="stroke:#000" />

<line x1="249" y1="245" x2="246" y2="249" style="stroke:#000" />

<line x1="249" y1="246" x2="246" y2="249" style="stroke:#000" />

<line x1="249" y1="246" x2="246" y2="250" style="stroke:#000" />

<line x1="249" y1="246" x2="246" y2="250" style="stroke:#000" />

<line x1="249" y1="246" x2="246" y2="250" style="stroke:#000" />

<line x1="249" y1="247" x2="246" y2="250" style="stroke:#000" />

<line x1="249" y1="247" x2="247" y2="250" style="stroke:#000" />

<line x1="249" y1="247" x2="247" y2="251" style="stroke:#000" />

<line x1="248" y1="247" x2="247" y2="251" style="stroke:#000" />

<line x1="248" y1="248" x2="247" y2="251" style="stroke:#000" />

<line x1="248" y1="248" x2="247" y2="251" style="stroke:#000" />

<line x1="248" y1="248" x2="248" y2="251" style="stroke:#000" />

<line x1="248" y1="248" x2="248" y2="251" style="stroke:#000" />

<line x1="248" y1="248" x2="248" y2="251" style="stroke:#000" />

<line x1="248" y1="248" x2="248" y2="251" style="stroke:#000" />

<line x1="248" y1="249" x2="248" y2="251" style="stroke:#000" />

<line x1="248" y1="249" x2="248" y2="251" style="stroke:#000" />

<line x1="248" y1="249" x2="248" y2="251" style="stroke:#000" />

<line x1="248" y1="249" x2="249" y2="251" style="stroke:#000" />

<line x1="248" y1="249" x2="249" y2="251" style="stroke:#000" />

<line x1="249" y1="249" x2="249" y2="251" style="stroke:#000" />

<line x1="249" y1="249" x2="249" y2="251" style="stroke:#000" />

<line x1="249" y1="250" x2="249" y2="251" style="stroke:#000" />

<line x1="399" y1="435" x2="472" y2="165" style="stroke:#000" />

<line x1="400" y1="418" x2="457" y2="159" style="stroke:#000" />

<line x1="400" y1="403" x2="442" y2="154" style="stroke:#000" />

<line x1="400" y1="388" x2="427" y2="150" style="stroke:#000" />

<line x1="399" y1="374" x2="413" y2="147" style="stroke:#000" />

<line x1="397" y1="360" x2="400" y2="144" style="stroke:#000" />

<line x1="395" y1="347" x2="387" y2="142" style="stroke:#000" />

<line x1="392" y1="336" x2="375" y2="141" style="stroke:#000" />

<line x1="389" y1="324" x2="364" y2="141" style="stroke:#000" />

<line x1="385" y1="314" x2="353" y2="141" style="stroke:#000" />

<line x1="381" y1="304" x2="342" y2="142" style="stroke:#000" />

<line x1="377" y1="295" x2="332" y2="143" style="stroke:#000" />

<line x1="373" y1="287" x2="323" y2="145" style="stroke:#000" />

<line x1="368" y1="279" x2="314" y2="146" style="stroke:#000" />

<line x1="364" y1="272" x2="306" y2="149" style="stroke:#000" />

<line x1="359" y1="266" x2="299" y2="151" style="stroke:#000" />

<line x1="354" y1="260" x2="291" y2="154" style="stroke:#000" />

<line x1="349" y1="254" x2="285" y2="157" style="stroke:#000" />

<line x1="344" y1="249" x2="278" y2="160" style="stroke:#000" />

<line x1="339" y1="245" x2="273" y2="163" style="stroke:#000" />

<line x1="335" y1="241" x2="267" y2="167" style="stroke:#000" />

<line x1="330" y1="237" x2="263" y2="170" style="stroke:#000" />

<line x1="325" y1="234" x2="258" y2="174" style="stroke:#000" />

<line x1="321" y1="231" x2="254" y2="177" style="stroke:#000" />

<line x1="316" y1="229" x2="250" y2="181" style="stroke:#000" />

<line x1="312" y1="227" x2="247" y2="184" style="stroke:#000" />

<line x1="307" y1="225" x2="244" y2="188" style="stroke:#000" />

<line x1="303" y1="224" x2="242" y2="191" style="stroke:#000" />

<line x1="299" y1="223" x2="239" y2="195" style="stroke:#000" />

<line x1="296" y1="222" x2="237" y2="198" style="stroke:#000" />

<line x1="292" y1="221" x2="235" y2="201" style="stroke:#000" />

<line x1="288" y1="220" x2="234" y2="204" style="stroke:#000" />

<line x1="285" y1="220" x2="232" y2="208" style="stroke:#000" />

<line x1="282" y1="220" x2="231" y2="211" style="stroke:#000" />

<line x1="279" y1="220" x2="230" y2="213" style="stroke:#000" />

<line x1="276" y1="220" x2="230" y2="216" style="stroke:#000" />

<line x1="273" y1="220" x2="229" y2="219" style="stroke:#000" />

<line x1="270" y1="221" x2="229" y2="222" style="stroke:#000" />

<line x1="268" y1="221" x2="228" y2="224" style="stroke:#000" />

<line x1="266" y1="222" x2="228" y2="226" style="stroke:#000" />

<line x1="264" y1="223" x2="228" y2="229" style="stroke:#000" />

<line x1="262" y1="223" x2="228" y2="231" style="stroke:#000" />

<line x1="260" y1="224" x2="229" y2="233" style="stroke:#000" />

<line x1="258" y1="225" x2="229" y2="235" style="stroke:#000" />

<line x1="256" y1="226" x2="229" y2="236" style="stroke:#000" />

<line x1="255" y1="227" x2="230" y2="238" style="stroke:#000" />

<line x1="254" y1="228" x2="230" y2="240" style="stroke:#000" />

<line x1="252" y1="229" x2="231" y2="241" style="stroke:#000" />

<line x1="251" y1="230" x2="231" y2="243" style="stroke:#000" />

<line x1="250" y1="231" x2="232" y2="244" style="stroke:#000" />

<line x1="249" y1="232" x2="232" y2="245" style="stroke:#000" />

<line x1="248" y1="233" x2="233" y2="246" style="stroke:#000" />

<line x1="248" y1="234" x2="234" y2="247" style="stroke:#000" />

<line x1="247" y1="235" x2="234" y2="248" style="stroke:#000" />

<line x1="247" y1="236" x2="235" y2="249" style="stroke:#000" />

<line x1="246" y1="236" x2="236" y2="250" style="stroke:#000" />

<line x1="246" y1="237" x2="237" y2="250" style="stroke:#000" />

<line x1="245" y1="238" x2="237" y2="251" style="stroke:#000" />

<line x1="245" y1="239" x2="238" y2="251" style="stroke:#000" />

<line x1="245" y1="240" x2="239" y2="252" style="stroke:#000" />

<line x1="244" y1="241" x2="239" y2="252" style="stroke:#000" />

<line x1="244" y1="241" x2="240" y2="253" style="stroke:#000" />

<line x1="244" y1="242" x2="241" y2="253" style="stroke:#000" />

<line x1="244" y1="243" x2="241" y2="253" style="stroke:#000" />

<line x1="244" y1="243" x2="242" y2="254" style="stroke:#000" />

<line x1="244" y1="244" x2="242" y2="254" style="stroke:#000" />

<line x1="244" y1="245" x2="243" y2="254" style="stroke:#000" />

<line x1="244" y1="245" x2="244" y2="254" style="stroke:#000" />

<line x1="244" y1="246" x2="244" y2="254" style="stroke:#000" />

<line x1="244" y1="246" x2="245" y2="254" style="stroke:#000" />

<line x1="244" y1="247" x2="245" y2="254" style="stroke:#000" />

<line x1="244" y1="247" x2="246" y2="254" style="stroke:#000" />

<line x1="245" y1="248" x2="246" y2="254" style="stroke:#000" />

<line x1="245" y1="248" x2="246" y2="254" style="stroke:#000" />

<line x1="245" y1="248" x2="247" y2="254" style="stroke:#000" />

<line x1="245" y1="249" x2="247" y2="254" style="stroke:#000" />

<line x1="245" y1="249" x2="247" y2="254" style="stroke:#000" />

<line x1="246" y1="249" x2="248" y2="254" style="stroke:#000" />

<line x1="246" y1="249" x2="248" y2="254" style="stroke:#000" />

<line x1="246" y1="250" x2="248" y2="254" style="stroke:#000" />

<line x1="246" y1="250" x2="249" y2="254" style="stroke:#000" />

<line x1="246" y1="250" x2="249" y2="254" style="stroke:#000" />

<line x1="246" y1="250" x2="249" y2="253" style="stroke:#000" />

<line x1="247" y1="250" x2="249" y2="253" style="stroke:#000" />

<line x1="247" y1="251" x2="250" y2="253" style="stroke:#000" />

<line x1="247" y1="251" x2="250" y2="253" style="stroke:#000" />

<line x1="247" y1="251" x2="250" y2="253" style="stroke:#000" />

<line x1="247" y1="251" x2="250" y2="253" style="stroke:#000" />

<line x1="248" y1="251" x2="250" y2="253" style="stroke:#000" />

<line x1="248" y1="251" x2="250" y2="252" style="stroke:#000" />

<line x1="248" y1="251" x2="250" y2="252" style="stroke:#000" />

<line x1="248" y1="251" x2="250" y2="252" style="stroke:#000" />

<line x1="248" y1="251" x2="251" y2="252" style="stroke:#000" />

<line x1="248" y1="251" x2="251" y2="252" style="stroke:#000" />

<line x1="248" y1="251" x2="251" y2="252" style="stroke:#000" />

<line x1="249" y1="251" x2="251" y2="252" style="stroke:#000" />

<line x1="249" y1="251" x2="251" y2="252" style="stroke:#000" />

<line x1="249" y1="251" x2="251" y2="251" style="stroke:#000" />

<line x1="249" y1="251" x2="251" y2="251" style="stroke:#000" />

<line x1="249" y1="251" x2="251" y2="251" style="stroke:#000" />

<line x1="472" y1="165" x2="238" y2="13" style="stroke:#000" />

<line x1="457" y1="159" x2="227" y2="26" style="stroke:#000" />

<line x1="442" y1="154" x2="218" y2="38" style="stroke:#000" />

<line x1="427" y1="150" x2="210" y2="50" style="stroke:#000" />

<line x1="413" y1="147" x2="202" y2="63" style="stroke:#000" />

<line x1="400" y1="144" x2="196" y2="74" style="stroke:#000" />

<line x1="387" y1="142" x2="190" y2="86" style="stroke:#000" />

<line x1="375" y1="141" x2="185" y2="97" style="stroke:#000" />

<line x1="364" y1="141" x2="181" y2="108" style="stroke:#000" />

<line x1="353" y1="141" x2="178" y2="119" style="stroke:#000" />

<line x1="342" y1="142" x2="176" y2="129" style="stroke:#000" />

<line x1="332" y1="143" x2="174" y2="139" style="stroke:#000" />

<line x1="323" y1="145" x2="172" y2="148" style="stroke:#000" />

<line x1="314" y1="146" x2="171" y2="157" style="stroke:#000" />

<line x1="306" y1="149" x2="171" y2="165" style="stroke:#000" />

<line x1="299" y1="151" x2="171" y2="173" style="stroke:#000" />

<line x1="291" y1="154" x2="171" y2="181" style="stroke:#000" />

<line x1="285" y1="157" x2="172" y2="188" style="stroke:#000" />

<line x1="278" y1="160" x2="173" y2="195" style="stroke:#000" />

<line x1="273" y1="163" x2="175" y2="202" style="stroke:#000" />

<line x1="267" y1="167" x2="176" y2="208" style="stroke:#000" />

<line x1="263" y1="170" x2="178" y2="213" style="stroke:#000" />

<line x1="258" y1="174" x2="180" y2="219" style="stroke:#000" />

<line x1="254" y1="177" x2="182" y2="224" style="stroke:#000" />

<line x1="250" y1="181" x2="184" y2="228" style="stroke:#000" />

<line x1="247" y1="184" x2="187" y2="232" style="stroke:#000" />

<line x1="244" y1="188" x2="189" y2="236" style="stroke:#000" />

<line x1="242" y1="191" x2="191" y2="240" style="stroke:#000" />

<line x1="239" y1="195" x2="194" y2="243" style="stroke:#000" />

<line x1="237" y1="198" x2="196" y2="246" style="stroke:#000" />

<line x1="235" y1="201" x2="199" y2="249" style="stroke:#000" />

<line x1="234" y1="204" x2="202" y2="251" style="stroke:#000" />

<line x1="232" y1="208" x2="204" y2="254" style="stroke:#000" />

<line x1="231" y1="211" x2="207" y2="256" style="stroke:#000" />

<line x1="230" y1="213" x2="209" y2="257" style="stroke:#000" />

<line x1="230" y1="216" x2="212" y2="259" style="stroke:#000" />

<line x1="229" y1="219" x2="214" y2="260" style="stroke:#000" />

<line x1="229" y1="222" x2="216" y2="262" style="stroke:#000" />

<line x1="228" y1="224" x2="219" y2="263" style="stroke:#000" />

<line x1="228" y1="226" x2="221" y2="263" style="stroke:#000" />

<line x1="228" y1="229" x2="223" y2="264" style="stroke:#000" />

<line x1="228" y1="231" x2="225" y2="265" style="stroke:#000" />

<line x1="229" y1="233" x2="227" y2="265" style="stroke:#000" />

<line x1="229" y1="235" x2="229" y2="265" style="stroke:#000" />

<line x1="229" y1="236" x2="231" y2="266" style="stroke:#000" />

<line x1="230" y1="238" x2="232" y2="266" style="stroke:#000" />

<line x1="230" y1="240" x2="234" y2="266" style="stroke:#000" />

<line x1="231" y1="241" x2="236" y2="266" style="stroke:#000" />

<line x1="231" y1="243" x2="237" y2="266" style="stroke:#000" />

<line x1="232" y1="244" x2="238" y2="265" style="stroke:#000" />

<line x1="232" y1="245" x2="240" y2="265" style="stroke:#000" />

<line x1="233" y1="246" x2="241" y2="265" style="stroke:#000" />

<line x1="234" y1="247" x2="242" y2="265" style="stroke:#000" />

<line x1="234" y1="248" x2="243" y2="264" style="stroke:#000" />

<line x1="235" y1="249" x2="244" y2="264" style="stroke:#000" />

<line x1="236" y1="250" x2="245" y2="263" style="stroke:#000" />

<line x1="237" y1="250" x2="246" y2="263" style="stroke:#000" />

<line x1="237" y1="251" x2="247" y2="262" style="stroke:#000" />

<line x1="238" y1="251" x2="248" y2="262" style="stroke:#000" />

<line x1="239" y1="252" x2="248" y2="261" style="stroke:#000" />

<line x1="239" y1="252" x2="249" y2="261" style="stroke:#000" />

<line x1="240" y1="253" x2="250" y2="260" style="stroke:#000" />

<line x1="241" y1="253" x2="250" y2="260" style="stroke:#000" />

<line x1="241" y1="253" x2="251" y2="259" style="stroke:#000" />

<line x1="242" y1="254" x2="251" y2="259" style="stroke:#000" />

<line x1="242" y1="254" x2="251" y2="258" style="stroke:#000" />

<line x1="243" y1="254" x2="252" y2="258" style="stroke:#000" />

<line x1="244" y1="254" x2="252" y2="257" style="stroke:#000" />

<line x1="244" y1="254" x2="252" y2="257" style="stroke:#000" />

<line x1="245" y1="254" x2="252" y2="256" style="stroke:#000" />

<line x1="245" y1="254" x2="253" y2="256" style="stroke:#000" />

<line x1="246" y1="254" x2="253" y2="256" style="stroke:#000" />

<line x1="246" y1="254" x2="253" y2="255" style="stroke:#000" />

<line x1="246" y1="254" x2="253" y2="255" style="stroke:#000" />

<line x1="247" y1="254" x2="253" y2="254" style="stroke:#000" />

<line x1="247" y1="254" x2="253" y2="254" style="stroke:#000" />

<line x1="247" y1="254" x2="253" y2="254" style="stroke:#000" />

<line x1="248" y1="254" x2="253" y2="253" style="stroke:#000" />

<line x1="248" y1="254" x2="253" y2="253" style="stroke:#000" />

<line x1="248" y1="254" x2="253" y2="253" style="stroke:#000" />

<line x1="249" y1="254" x2="253" y2="252" style="stroke:#000" />

<line x1="249" y1="254" x2="253" y2="252" style="stroke:#000" />

<line x1="249" y1="253" x2="253" y2="252" style="stroke:#000" />

<line x1="249" y1="253" x2="253" y2="252" style="stroke:#000" />

<line x1="250" y1="253" x2="253" y2="251" style="stroke:#000" />

<line x1="250" y1="253" x2="253" y2="251" style="stroke:#000" />

<line x1="250" y1="253" x2="253" y2="251" style="stroke:#000" />

<line x1="250" y1="253" x2="253" y2="251" style="stroke:#000" />

<line x1="250" y1="253" x2="253" y2="251" style="stroke:#000" />

<line x1="250" y1="252" x2="252" y2="251" style="stroke:#000" />

<line x1="250" y1="252" x2="252" y2="250" style="stroke:#000" />

<line x1="250" y1="252" x2="252" y2="250" style="stroke:#000" />

<line x1="251" y1="252" x2="252" y2="250" style="stroke:#000" />

<line x1="251" y1="252" x2="252" y2="250" style="stroke:#000" />

<line x1="251" y1="252" x2="252" y2="250" style="stroke:#000" />

<line x1="251" y1="252" x2="252" y2="250" style="stroke:#000" />

<line x1="251" y1="252" x2="252" y2="250" style="stroke:#000" />

<line x1="251" y1="251" x2="252" y2="250" style="stroke:#000" />

<line x1="251" y1="251" x2="252" y2="250" style="stroke:#000" />

<line x1="251" y1="251" x2="251" y2="250" style="stroke:#000" />

</svg>

