<svg xmlns="http://www.w3.org/2000/svg" version="1.1" width="500" height="500">

<rect x="0" y="0" width="500" height="500" style="stroke:#000;fill:none" />

<line x1="250" y1="100" x2="120" y2="325" style="stroke:#000" />

<line x1="120" y1="325" x2="380" y2="325" style="stroke:#000" />

<line x1="380" y1="325" x2="250" y2="100" style="stroke:#000" />

<line x1="243" y1="108" x2="130" y2="327" style="stroke:#000" />

<line x1="236" y1="115" x2="140" y2="329" style="stroke:#000" />

<line x1="231" y1="123" x2="149" y2="330" style="stroke:#000" />

<line x1="226" y1="130" x2="158" y2="331" style="stroke:#000" />

<line x1="221" y1="138" x2="167" y2="331" style="stroke:#000" />

<line x1="217" y1="145" x2="175" y2="331" style="stroke:#000" />

<line x1="214" y1="152" x2="183" y2="330" style="stroke:#000" />

<line x1="211" y1="158" x2="190" y2="329" style="stroke:#000" />

<line x1="209" y1="165" x2="197" y2="328" style="stroke:#000" />

<line x1="207" y1="171" x2="203" y2="327" style="stroke:#000" />

<line x1="205" y1="177" x2="209" y2="325" style="stroke:#000" />

<line x1="204" y1="183" x2="215" y2="323" style="stroke:#000" />

<line x1="203" y1="189" x2="220" y2="321" style="stroke:#000" />

<line x1="203" y1="194" x2="225" y2="319" style="stroke:#000" />

<line x1="203" y1="199" x2="230" y2="316" style="stroke:#000" />

<line x1="203" y1="204" x2="234" y2="314" style="stroke:#000" />

<line x1="203" y1="209" x2="238" y2="312" style="stroke:#000" />

<line x1="203" y1="213" x2="241" y2="309" style="stroke:#000" />

<line x1="204" y1="217" x2="245" y2="306" style="stroke:#000" />

<line x1="205" y1="221" x2="247" y2="304" style="stroke:#000" />

<line x1="206" y1="225" x2="250" y2="301" style="stroke:#000" />

<line x1="207" y1="228" x2="253" y2="298" style="stroke:#000" />

<line x1="208" y1="231" x2="255" y2="296" style="stroke:#000" />

<line x1="209" y1="234" x2="257" y2="293" style="stroke:#000" />

<line x1="211" y1="237" x2="258" y2="291" style="stroke:#000" />

<line x1="212" y1="239" x2="260" y2="288" style="stroke:#000" />

<line x1="213" y1="242" x2="261" y2="286" style="stroke:#000" />

<line x1="215" y1="244" x2="262" y2="283" style="stroke:#000" />

<line x1="216" y1="246" x2="263" y2="281" style="stroke:#000" />

<line x1="218" y1="248" x2="264" y2="279" style="stroke:#000" />

<line x1="219" y1="249" x2="265" y2="277" style="stroke:#000" />

<line x1="221" y1="251" x2="265" y2="275" style="stroke:#000" />

<line x1="222" y1="252" x2="266" y2="273" style="stroke:#000" />

<line x1="224" y1="253" x2="266" y2="271" style="stroke:#000" />

<line x1="225" y1="254" x2="266" y2="269" style="stroke:#000" />

<line x1="227" y1="255" x2="266" y2="267" style="stroke:#000" />

<line x1="228" y1="256" x2="266" y2="266" style="stroke:#000" />

<line x1="230" y1="257" x2="266" y2="264" style="stroke:#000" />

<line x1="231" y1="258" x2="266" y2="263" style="stroke:#000" />

<line x1="232" y1="258" x2="266" y2="261" style="stroke:#000" />

<line x1="234" y1="258" x2="265" y2="260" style="stroke:#000" />

<line x1="235" y1="259" x2="265" y2="259" style="stroke:#000" />

<line x1="236" y1="259" x2="265" y2="257" style="stroke:#000" />

<line x1="237" y1="259" x2="264" y2="256" style="stroke:#000" />

<line x1="238" y1="259" x2="264" y2="255" style="stroke:#000" />

<line x1="239" y1="259" x2="263" y2="254" style="stroke:#000" />

<line x1="240" y1="259" x2="263" y2="254" style="stroke:#000" />

<line x1="241" y1="259" x2="262" y2="253" style="stroke:#000" />

<line x1="242" y1="259" x2="262" y2="252" style="stroke:#000" />

<line x1="243" y1="259" x2="261" y2="251" style="stroke:#000" />

<line x1="244" y1="259" x2="261" y2="251" style="stroke:#000" />

<line x1="245" y1="259" x2="260" y2="250" style="stroke:#000" />

<line x1="245" y1="259" x2="260" y2="250" style="stroke:#000" />

<line x1="246" y1="258" x2="259" y2="249" style="stroke:#000" />

<line x1="247" y1="258" x2="259" y2="249" style="stroke:#000" />

<line x1="247" y1="258" x2="258" y2="248" style="stroke:#000" />

<line x1="248" y1="258" x2="258" y2="248" style="stroke:#000" />

<line x1="248" y1="257" x2="257" y2="248" style="stroke:#000" />

<line x1="249" y1="257" x2="257" y2="248" style="stroke:#000" />

<line x1="249" y1="257" x2="256" y2="247" style="stroke:#000" />

<line x1="249" y1="257" x2="256" y2="247" style="stroke:#000" />

<line x1="250" y1="256" x2="256" y2="247" style="stroke:#000" />

<line x1="250" y1="256" x2="255" y2="247" style="stroke:#000" />

<line x1="250" y1="256" x2="255" y2="247" style="stroke:#000" />

<line x1="251" y1="255" x2="254" y2="247" style="stroke:#000" />

<line x1="251" y1="255" x2="254" y2="247" style="stroke:#000" />

<line x1="251" y1="255" x2="254" y2="247" style="stroke:#000" />

<line x1="251" y1="254" x2="253" y2="247" style="stroke:#000" />

<line x1="251" y1="254" x2="253" y2="247" style="stroke:#000" />

<line x1="251" y1="254" x2="253" y2="247" style="stroke:#000" />

<line x1="252" y1="254" x2="252" y2="247" style="stroke:#000" />

<line x1="252" y1="253" x2="252" y2="247" style="stroke:#000" />

<line x1="252" y1="253" x2="252" y2="247" style="stroke:#000" />

<line x1="252" y1="253" x2="252" y2="247" style="stroke:#000" />

<line x1="252" y1="253" x2="251" y2="247" style="stroke:#000" />

<line x1="252" y1="252" x2="251" y2="247" style="stroke:#000" />

<line x1="252" y1="252" x2="251" y2="247" style="stroke:#000" />

<line x1="252" y1="252" x2="251" y2="247" style="stroke:#000" />

<line x1="252" y1="252" x2="251" y2="247" style="stroke:#000" />

<line x1="252" y1="252" x2="250" y2="248" style="stroke:#000" />

<line x1="252" y1="251" x2="250" y2="248" style="stroke:#000" />

<line x1="252" y1="251" x2="250" y2="248" style="stroke:#000" />

<line x1="252" y1="251" x2="250" y2="248" style="stroke:#000" />

<line x1="252" y1="251" x2="250" y2="248" style="stroke:#000" />

<line x1="252" y1="251" x2="250" y2="248" style="stroke:#000" />

<line x1="252" y1="251" x2="250" y2="248" style="stroke:#000" />

<line x1="252" y1="251" x2="250" y2="248" style="stroke:#000" />

<line x1="252" y1="251" x2="250" y2="248" style="stroke:#000" />

<line x1="252" y1="250" x2="250" y2="248" style="stroke:#000" />

<line x1="251" y1="250" x2="250" y2="249" style="stroke:#000" />

<line x1="251" y1="250" x2="250" y2="249" style="stroke:#000" />

<line x1="251" y1="250" x2="249" y2="249" style="stroke:#000" />

<line x1="251" y1="250" x2="249" y2="249" style="stroke:#000" />

<line x1="251" y1="250" x2="249" y2="249" style="stroke:#000" />

<line x1="251" y1="250" x2="249" y2="249" style="stroke:#000" />

<line x1="251" y1="250" x2="249" y2="249" style="stroke:#000" />

<line x1="251" y1="250" x2="249" y2="249" style="stroke:#000" />

<line x1="251" y1="250" x2="249" y2="249" style="stroke:#000" />

<line x1="251" y1="250" x2="249" y2="249" style="stroke:#000" />

<line x1="251" y1="250" x2="249" y2="249" style="stroke:#000" />

<line x1="130" y1="327" x2="377" y2="315" style="stroke:#000" />

<line x1="140" y1="329" x2="373" y2="306" style="stroke:#000" />

<line x1="149" y1="330" x2="370" y2="297" style="stroke:#000" />

<line x1="158" y1="331" x2="366" y2="289" style="stroke:#000" />

<line x1="167" y1="331" x2="362" y2="281" style="stroke:#000" />

<line x1="175" y1="331" x2="358" y2="274" style="stroke:#000" />

<line x1="183" y1="330" x2="353" y2="268" style="stroke:#000" />

<line x1="190" y1="329" x2="349" y2="262" style="stroke:#000" />

<line x1="197" y1="328" x2="344" y2="257" style="stroke:#000" />

<line x1="203" y1="327" x2="340" y2="252" style="stroke:#000" />

<line x1="209" y1="325" x2="335" y2="248" style="stroke:#000" />

<line x1="215" y1="323" x2="331" y2="244" style="stroke:#000" />

<line x1="220" y1="321" x2="326" y2="240" style="stroke:#000" />

<line x1="225" y1="319" x2="322" y2="237" style="stroke:#000" />

<line x1="230" y1="316" x2="318" y2="234" style="stroke:#000" />

<line x1="234" y1="314" x2="314" y2="232" style="stroke:#000" />

<line x1="238" y1="312" x2="309" y2="230" style="stroke:#000" />

<line x1="241" y1="309" x2="305" y2="228" style="stroke:#000" />

<line x1="245" y1="306" x2="302" y2="227" style="stroke:#000" />

<line x1="247" y1="304" x2="298" y2="225" style="stroke:#000" />

<line x1="250" y1="301" x2="294" y2="224" style="stroke:#000" />

<line x1="253" y1="298" x2="291" y2="224" style="stroke:#000" />

<line x1="255" y1="296" x2="287" y2="223" style="stroke:#000" />

<line x1="257" y1="293" x2="284" y2="223" style="stroke:#000" />

<line x1="258" y1="291" x2="281" y2="222" style="stroke:#000" />

<line x1="260" y1="288" x2="278" y2="222" style="stroke:#000" />

<line x1="261" y1="286" x2="275" y2="222" style="stroke:#000" />

<line x1="262" y1="283" x2="273" y2="223" style="stroke:#000" />

<line x1="263" y1="281" x2="270" y2="223" style="stroke:#000" />

<line x1="264" y1="279" x2="268" y2="223" style="stroke:#000" />

<line x1="265" y1="277" x2="266" y2="224" style="stroke:#000" />

<line x1="265" y1="275" x2="264" y2="224" style="stroke:#000" />

<line x1="266" y1="273" x2="262" y2="225" style="stroke:#000" />

<line x1="266" y1="271" x2="260" y2="226" style="stroke:#000" />

<line x1="266" y1="269" x2="258" y2="227" style="stroke:#000" />

<line x1="266" y1="267" x2="257" y2="227" style="stroke:#000" />

<line x1="266" y1="266" x2="255" y2="228" style="stroke:#000" />

<line x1="266" y1="264" x2="254" y2="229" style="stroke:#000" />

<line x1="266" y1="263" x2="253" y2="230" style="stroke:#000" />

<line x1="266" y1="261" x2="252" y2="231" style="stroke:#000" />

<line x1="265" y1="260" x2="251" y2="232" style="stroke:#000" />

<line x1="265" y1="259" x2="250" y2="233" style="stroke:#000" />

<line x1="265" y1="257" x2="249" y2="233" style="stroke:#000" />

<line x1="264" y1="256" x2="248" y2="234" style="stroke:#000" />

<line x1="264" y1="255" x2="248" y2="235" style="stroke:#000" />

<line x1="263" y1="254" x2="247" y2="236" style="stroke:#000" />

<line x1="263" y1="254" x2="247" y2="237" style="stroke:#000" />

<line x1="262" y1="253" x2="246" y2="238" style="stroke:#000" />

<line x1="262" y1="252" x2="246" y2="239" style="stroke:#000" />

<line x1="261" y1="251" x2="245" y2="239" style="stroke:#000" />

<line x1="261" y1="251" x2="245" y2="240" style="stroke:#000" />

<line x1="260" y1="250" x2="245" y2="241" style="stroke:#000" />

<line x1="260" y1="250" x2="245" y2="242" style="stroke:#000" />

<line x1="259" y1="249" x2="245" y2="242" style="stroke:#000" />

<line x1="259" y1="249" x2="245" y2="243" style="stroke:#000" />

<line x1="258" y1="248" x2="244" y2="244" style="stroke:#000" />

<line x1="258" y1="248" x2="244" y2="244" style="stroke:#000" />

<line x1="257" y1="248" x2="244" y2="245" style="stroke:#000" />

<line x1="257" y1="248" x2="245" y2="245" style="stroke:#000" />

<line x1="256" y1="247" x2="245" y2="246" style="stroke:#000" />

<line x1="256" y1="247" x2="245" y2="246" style="stroke:#000" />

<line x1="256" y1="247" x2="245" y2="247" style="stroke:#000" />

<line x1="255" y1="247" x2="245" y2="247" style="stroke:#000" />

<line x1="255" y1="247" x2="245" y2="247" style="stroke:#000" />

<line x1="254" y1="247" x2="245" y2="248" style="stroke:#000" />

<line x1="254" y1="247" x2="245" y2="248" style="stroke:#000" />

<line x1="254" y1="247" x2="245" y2="249" style="stroke:#000" />

<line x1="253" y1="247" x2="246" y2="249" style="stroke:#000" />

<line x1="253" y1="247" x2="246" y2="249" style="stroke:#000" />

<line x1="253" y1="247" x2="246" y2="249" style="stroke:#000" />

<line x1="252" y1="247" x2="246" y2="250" style="stroke:#000" />

<line x1="252" y1="247" x2="246" y2="250" style="stroke:#000" />

<line x1="252" y1="247" x2="246" y2="250" style="stroke:#000" />

<line x1="252" y1="247" x2="247" y2="250" style="stroke:#000" />

<line x1="251" y1="247" x2="247" y2="250" style="stroke:#000" />

<line x1="251" y1="247" x2="247" y2="250" style="stroke:#000" />

<line x1="251" y1="247" x2="247" y2="251" style="stroke:#000" />

<line x1="251" y1="247" x2="247" y2="251" style="stroke:#000" />

<line x1="251" y1="247" x2="247" y2="251" style="stroke:#000" />

<line x1="250" y1="248" x2="248" y2="251" style="stroke:#000" />

<line x1="250" y1="248" x2="248" y2="251" style="stroke:#000" />

<line x1="250" y1="248" x2="248" y2="251" style="stroke:#000" />

<line x1="250" y1="248" x2="248" y2="251" style="stroke:#000" />

<line x1="250" y1="248" x2="248" y2="251" style="stroke:#000" />

<line x1="250" y1="248" x2="248" y2="251" style="stroke:#000" />

<line x1="250" y1="248" x2="249" y2="251" style="stroke:#000" />

<line x1="250" y1="248" x2="249" y2="251" style="stroke:#000" />

<line x1="250" y1="248" x2="249" y2="251" style="stroke:#000" />

<line x1="250" y1="248" x2="249" y2="251" style="stroke:#000" />

<line x1="250" y1="249" x2="249" y2="251" style="stroke:#000" />

<line x1="250" y1="249" x2="249" y2="251" style="stroke:#000" />

<line x1="249" y1="249" x2="249" y2="251" style="stroke:#000" />

<line x1="249" y1="249" x2="249" y2="251" style="stroke:#000" />

<line x1="249" y1="249" x2="249" y2="251" style="stroke:#000" />

<line x1="249" y1="249" x2="249" y2="251" style="stroke:#000" />

<line x1="249" y1="249" x2="250" y2="251" style="stroke:#000" />

<line x1="249" y1="249" x2="250" y2="251" style="stroke:#000" />

<line x1="249" y1="249" x2="250" y2="251" style="stroke:#000" />

<line x1="249" y1="249" x2="250" y2="251" style="stroke:#000" />

<line x1="249" y1="249" x2="250" y2="251" style="stroke:#000" />

<line x1="377" y1="315" x2="243" y2="108" style="stroke:#000" />

<line x1="373" y1="306" x2="236" y2="115" style="stroke:#000" />

<line x1="370" y1="297" x2="231" y2="123" style="stroke:#000" />

<line x1="366" y1="289" x2="226" y2="130" style="stroke:#000" />

<line x1="362" y1="281" x2="221" y2="138" style="stroke:#000" />

<line x1="358" y1="274" x2="217" y2="145" style="stroke:#000" />

<line x1="353" y1="268" x2="214" y2="152" style="stroke:#000" />

<line x1="349" y1="262" x2="211" y2="158" style="stroke:#000" />

<line x1="344" y1="257" x2="209" y2="165" style="stroke:#000" />

<line x1="340" y1="252" x2="207" y2="171" style="stroke:#000" />

<line x1="335" y1="248" x2="205" y2="177" style="stroke:#000" />

<line x1="331" y1="244" x2="204" y2="183" style="stroke:#000" />

<line x1="326" y1="240" x2="203" y2="189" style="stroke:#000" />

<line x1="322" y1="237" x2="203" y2="194" style="stroke:#000" />

<line x1="318" y1="234" x2="203" y2="199" style="stroke:#000" />

<line x1="314" y1="232" x2="203" y2="204" style="stroke:#000" />

<line x1="309" y1="230" x2="203" y2="209" style="stroke:#000" />

<line x1="305" y1="228" x2="203" y2="213" style="stroke:#000" />

<line x1="302" y1="227" x2="204" y2="217" style="stroke:#000" />

<line x1="298" y1="225" x2="205" y2="221" style="stroke:#000" />

<line x1="294" y1="224" x2="206" y2="225" style="stroke:#000" />

<line x1="291" y1="224" x2="207" y2="228" style="stroke:#000" />

<line x1="287" y1="223" x2="208" y2="231" style="stroke:#000" />

<line x1="284" y1="223" x2="209" y2="234" style="stroke:#000" />

<line x1="281" y1="222" x2="211" y2="237" style="stroke:#000" />

<line x1="278" y1="222" x2="212" y2="239" style="stroke:#000" />

<line x1="275" y1="222" x2="213" y2="242" style="stroke:#000" />

<line x1="273" y1="223" x2="215" y2="244" style="stroke:#000" />

<line x1="270" y1="223" x2="216" y2="246" style="stroke:#000" />

<line x1="268" y1="223" x2="218" y2="248" style="stroke:#000" />

<line x1="266" y1="224" x2="219" y2="249" style="stroke:#000" />

<line x1="264" y1="224" x2="221" y2="251" style="stroke:#000" />

<line x1="262" y1="225" x2="222" y2="252" style="stroke:#000" />

<line x1="260" y1="226" x2="224" y2="253" style="stroke:#000" />

<line x1="258" y1="227" x2="225" y2="254" style="stroke:#000" />

<line x1="257" y1="227" x2="227" y2="255" style="stroke:#000" />

<line x1="255" y1="228" x2="228" y2="256" style="stroke:#000" />

<line x1="254" y1="229" x2="230" y2="257" style="stroke:#000" />

<line x1="253" y1="230" x2="231" y2="258" style="stroke:#000" />

<line x1="252" y1="231" x2="232" y2="258" style="stroke:#000" />

<line x1="251" y1="232" x2="234" y2="258" style="stroke:#000" />

<line x1="250" y1="233" x2="235" y2="259" style="stroke:#000" />

<line x1="249" y1="233" x2="236" y2="259" style="stroke:#000" />

<line x1="248" y1="234" x2="237" y2="259" style="stroke:#000" />

<line x1="248" y1="235" x2="238" y2="259" style="stroke:#000" />

<line x1="247" y1="236" x2="239" y2="259" style="stroke:#000" />

<line x1="247" y1="237" x2="240" y2="259" style="stroke:#000" />

<line x1="246" y1="238" x2="241" y2="259" style="stroke:#000" />

<line x1="246" y1="239" x2="242" y2="259" style="stroke:#000" />

<line x1="245" y1="239" x2="243" y2="259" style="stroke:#000" />

<line x1="245" y1="240" x2="244" y2="259" style="stroke:#000" />

<line x1="245" y1="241" x2="245" y2="259" style="stroke:#000" />

<line x1="245" y1="242" x2="245" y2="259" style="stroke:#000" />

<line x1="245" y1="242" x2="246" y2="258" style="stroke:#000" />

<line x1="245" y1="243" x2="247" y2="258" style="stroke:#000" />

<line x1="244" y1="244" x2="247" y2="258" style="stroke:#000" />

<line x1="244" y1="244" x2="248" y2="258" style="stroke:#000" />

<line x1="244" y1="245" x2="248" y2="257" style="stroke:#000" />

<line x1="245" y1="245" x2="249" y2="257" style="stroke:#000" />

<line x1="245" y1="246" x2="249" y2="257" style="stroke:#000" />

<line x1="245" y1="246" x2="249" y2="257" style="stroke:#000" />

<line x1="245" y1="247" x2="250" y2="256" style="stroke:#000" />

<line x1="245" y1="247" x2="250" y2="256" style="stroke:#000" />

<line x1="245" y1="247" x2="250" y2="256" style="stroke:#000" />

<line x1="245" y1="248" x2="251" y2="255" style="stroke:#000" />

<line x1="245" y1="248" x2="251" y2="255" style="stroke:#000" />

<line x1="245" y1="249" x2="251" y2="255" style="stroke:#000" />

<line x1="246" y1="249" x2="251" y2="254" style="stroke:#000" />

<line x1="246" y1="249" x2="251" y2="254" style="stroke:#000" />

<line x1="246" y1="249" x2="251" y2="254" style="stroke:#000" />

<line x1="246" y1="250" x2="252" y2="254" style="stroke:#000" />

<line x1="246" y1="250" x2="252" y2="253" style="stroke:#000" />

<line x1="246" y1="250" x2="252" y2="253" style="stroke:#000" />

<line x1="247" y1="250" x2="252" y2="253" style="stroke:#000" />

<line x1="247" y1="250" x2="252" y2="253" style="stroke:#000" />

<line x1="247" y1="250" x2="252" y2="252" style="stroke:#000" />

<line x1="247" y1="251" x2="252" y2="252" style="stroke:#000" />

<line x1="247" y1="251" x2="252" y2="252" style="stroke:#000" />

<line x1="247" y1="251" x2="252" y2="252" style="stroke:#000" />

<line x1="248" y1="251" x2="252" y2="252" style="stroke:#000" />

<line x1="248" y1="251" x2="252" y2="251" style="stroke:#000" />

<line x1="248" y1="251" x2="252" y2="251" style="stroke:#000" />

<line x1="248" y1="251" x2="252" y2="251" style="stroke:#000" />

<line x1="248" y1="251" x2="252" y2="251" style="stroke:#000" />

<line x1="248" y1="251" x2="252" y2="251" style="stroke:#000" />

<line x1="249" y1="251" x2="252" y2="251" style="stroke:#000" />

<line x1="249" y1="251" x2="252" y2="251" style="stroke:#000" />

<line x1="249" y1="251" x2="252" y2="251" style="stroke:#000" />

<line x1="249" y1="251" x2="252" y2="250" style="stroke:#000" />

<line x1="249" y1="251" x2="251" y2="250" style="stroke:#000" />

<line x1="249" y1="251" x2="251" y2="250" style="stroke:#000" />

<line x1="249" y1="251" x2="251" y2="250" style="stroke:#000" />

<line x1="249" y1="251" x2="251" y2="250" style="stroke:#000" />

<line x1="249" y1="251" x2="251" y2="250" style="stroke:#000" />

<line x1="249" y1="251" x2="251" y2="250" style="stroke:#000" />

<line x1="250" y1="251" x2="251" y2="250" style="stroke:#000" />

<line x1="250" y1="251" x2="251" y2="250" style="stroke:#000" />

<line x1="250" y1="251" x2="251" y2="250" style="stroke:#000" />

<line x1="250" y1="251" x2="251" y2="250" style="stroke:#000" />

<line x1="250" y1="251" x2="251" y2="250" style="stroke:#000" />

</svg>

