<svg xmlns="http://www.w3.org/2000/svg" version="1.1" width="500" height="500">

<rect x="0" y="0" width="500" height="500" style="stroke:#000;fill:none" />

<line x1="250" y1="0" x2="0" y2="250" style="stroke:#000" />

<line x1="0" y1="250" x2="250" y2="500" style="stroke:#000" />

<line x1="250" y1="500" x2="500" y2="250" style="stroke:#000" />

<line x1="500" y1="250" x2="250" y2="0" style="stroke:#000" />

<line x1="238" y1="13" x2="13" y2="262" style="stroke:#000" />

<line x1="227" y1="26" x2="26" y2="273" style="stroke:#000" />

<line x1="218" y1="38" x2="38" y2="282" style="stroke:#000" />

<line x1="210" y1="50" x2="50" y2="290" style="stroke:#000" />

<line x1="202" y1="63" x2="63" y2="298" style="stroke:#000" />

<line x1="196" y1="74" x2="74" y2="304" style="stroke:#000" />

<line x1="190" y1="86" x2="86" y2="310" style="stroke:#000" />

<line x1="185" y1="97" x2="97" y2="315" style="stroke:#000" />

<line x1="181" y1="108" x2="108" y2="319" style="stroke:#000" />

<line x1="178" y1="119" x2="119" y2="322" style="stroke:#000" />

<line x1="176" y1="129" x2="129" y2="324" style="stroke:#000" />

<line x1="174" y1="139" x2="139" y2="326" style="stroke:#000" />

<line x1="172" y1="148" x2="148" y2="328" style="stroke:#000" />

<line x1="171" y1="157" x2="157" y2="329" style="stroke:#000" />

<line x1="171" y1="165" x2="165" y2="329" style="stroke:#000" />

<line x1="171" y1="173" x2="173" y2="329" style="stroke:#000" />

<line x1="171" y1="181" x2="181" y2="329" style="stroke:#000" />

<line x1="172" y1="188" x2="188" y2="328" style="stroke:#000" />

<line x1="173" y1="195" x2="195" y2="327" style="stroke:#000" />

<line x1="175" y1="202" x2="202" y2="325" style="stroke:#000" />

<line x1="176" y1="208" x2="208" y2="324" style="stroke:#000" />

<line x1="178" y1="213" x2="213" y2="322" style="stroke:#000" />

<line x1="180" y1="219" x2="219" y2="320" style="stroke:#000" />

<line x1="182" y1="224" x2="224" y2="318" style="stroke:#000" />

<line x1="184" y1="228" x2="228" y2="316" style="stroke:#000" />

<line x1="187" y1="232" x2="232" y2="313" style="stroke:#000" />

<line x1="189" y1="236" x2="236" y2="311" style="stroke:#000" />

<line x1="191" y1="240" x2="240" y2="309" style="stroke:#000" />

<line x1="194" y1="243" x2="243" y2="306" style="stroke:#000" />

<line x1="196" y1="246" x2="246" y2="304" style="stroke:#000" />

<line x1="199" y1="249" x2="249" y2="301" style="stroke:#000" />

<line x1="202" y1="251" x2="251" y2="298" style="stroke:#000" />

<line x1="204" y1="254" x2="254" y2="296" style="stroke:#000" />

<line x1="207" y1="256" x2="256" y2="293" style="stroke:#000" />

<line x1="209" y1="257" x2="257" y2="291" style="stroke:#000" />

<line x1="212" y1="259" x2="259" y2="288" style="stroke:#000" />

<line x1="214" y1="260" x2="260" y2="286" style="stroke:#000" />

<line x1="216" y1="262" x2="262" y2="284" style="stroke:#000" />

<line x1="219" y1="263" x2="263" y2="281" style="stroke:#000" />

<line x1="221" y1="263" x2="263" y2="279" style="stroke:#000" />

<line x1="223" y1="264" x2="264" y2="277" style="stroke:#000" />

<line x1="225" y1="265" x2="265" y2="275" style="stroke:#000" />

<line x1="227" y1="265" x2="265" y2="273" style="stroke:#000" />

<line x1="229" y1="265" x2="265" y2="271" style="stroke:#000" />

<line x1="231" y1="266" x2="266" y2="269" style="stroke:#000" />

<line x1="232" y1="266" x2="266" y2="268" style="stroke:#000" />

<line x1="234" y1="266" x2="266" y2="266" style="stroke:#000" />

<line x1="236" y1="266" x2="266" y2="264" style="stroke:#000" />

<line x1="237" y1="266" x2="266" y2="263" style="stroke:#000" />

<line x1="238" y1="265" x2="265" y2="262" style="stroke:#000" />

<line x1="240" y1="265" x2="265" y2="260" style="stroke:#000" />

<line x1="241" y1="265" x2="265" y2="259" style="stroke:#000" />

<line x1="242" y1="265" x2="265" y2="258" style="stroke:#000" />

<line x1="243" y1="264" x2="264" y2="257" style="stroke:#000" />

<line x1="244" y1="264" x2="264" y2="256" style="stroke:#000" />

<line x1="245" y1="263" x2="263" y2="255" style="stroke:#000" />

<line x1="246" y1="263" x2="263" y2="254" style="stroke:#000" />

<line x1="247" y1="262" x2="262" y2="253" style="stroke:#000" />

<line x1="248" y1="262" x2="262" y2="252" style="stroke:#000" />

<line x1="248" y1="261" x2="261" y2="252" style="stroke:#000" />

<line x1="249" y1="261" x2="261" y2="251" style="stroke:#000" />

<line x1="250" y1="260" x2="260" y2="250" style="stroke:#000" />

<line x1="250" y1="260" x2="260" y2="250" style="stroke:#000" />

<line x1="251" y1="259" x2="259" y2="249" style="stroke:#000" />

<line x1="251" y1="259" x2="259" y2="249" style="stroke:#000" />

<line x1="251" y1="258" x2="258" y2="249" style="stroke:#000" />

<line x1="252" y1="258" x2="258" y2="248" style="stroke:#000" />

<line x1="252" y1="257" x2="257" y2="248" style="stroke:#000" />

<line x1="252" y1="257" x2="257" y2="248" style="stroke:#000" />

<line x1="252" y1="256" x2="256" y2="248" style="stroke:#000" />

<line x1="253" y1="256" x2="256" y2="247" style="stroke:#000" />

<line x1="253" y1="256" x2="256" y2="247" style="stroke:#000" />

<line x1="253" y1="255" x2="255" y2="247" style="stroke:#000" />

<line x1="253" y1="255" x2="255" y2="247" style="stroke:#000" />

<line x1="253" y1="254" x2="254" y2="247" style="stroke:#000" />

<line x1="253" y1="254" x2="254" y2="247" style="stroke:#000" />

<line x1="253" y1="254" x2="254" y2="247" style="stroke:#000" />

<line x1="253" y1="253" x2="253" y2="247" style="stroke:#000" />

<line x1="253" y1="253" x2="253" y2="247" style="stroke:#000" />

<line x1="253" y1="253" x2="253" y2="247" style="stroke:#000" />

<line x1="253" y1="252" x2="252" y2="247" style="stroke:#000" />

<line x1="253" y1="252" x2="252" y2="247" style="stroke:#000" />

<line x1="253" y1="252" x2="252" y2="247" style="stroke:#000" />

<line x1="253" y1="252" x2="252" y2="247" style="stroke:#000" />

<line x1="253" y1="251" x2="251" y2="247" style="stroke:#000" />

<line x1="253" y1="251" x2="251" y2="247" style="stroke:#000" />

<line x1="253" y1="251" x2="251" y2="247" style="stroke:#000" />

<line x1="253" y1="251" x2="251" y2="247" style="stroke:#000" />

<line x1="253" y1="251" x2="251" y2="247" style="stroke:#000" />

<line x1="252" y1="251" x2="251" y2="248" style="stroke:#000" />

<line x1="252" y1="250" x2="250" y2="248" style="stroke:#000" />

<line x1="252" y1="250" x2="250" y2="248" style="stroke:#000" />

<line x1="252" y1="250" x2="250" y2="248" style="stroke:#000" />

<line x1="252" y1="250" x2="250" y2="248" style="stroke:#000" />

<line x1="252" y1="250" x2="250" y2="248" style="stroke:#000" />

<line x1="252" y1="250" x2="250" y2="248" style="stroke:#000" />

<line x1="252" y1="250" x2="250" y2="248" style="stroke:#000" />

<line x1="252" y1="250" x2="250" y2="248" style="stroke:#000" />

<line x1="252" y1="250" x2="250" y2="248" style="stroke:#000" />

<line x1="251" y1="250" x2="250" y2="249" style="stroke:#000" />

<line x1="13" y1="262" x2="262" y2="487" style="stroke:#000" />

<line x1="26" y1="273" x2="273" y2="474" style="stroke:#000" />

<line x1="38" y1="282" x2="282" y2="462" style="stroke:#000" />

<line x1="50" y1="290" x2="290" y2="450" style="stroke:#000" />

<line x1="63" y1="298" x2="298" y2="437" style="stroke:#000" />

<line x1="74" y1="304" x2="304" y2="426" style="stroke:#000" />

<line x1="86" y1="310" x2="310" y2="414" style="stroke:#000" />

<line x1="97" y1="315" x2="315" y2="403" style="stroke:#000" />

<line x1="108" y1="319" x2="319" y2="392" style="stroke:#000" />

<line x1="119" y1="322" x2="322" y2="381" style="stroke:#000" />

<line x1="129" y1="324" x2="324" y2="371" style="stroke:#000" />

<line x1="139" y1="326" x2="326" y2="361" style="stroke:#000" />

<line x1="148" y1="328" x2="328" y2="352" style="stroke:#000" />

<line x1="157" y1="329" x2="329" y2="343" style="stroke:#000" />

<line x1="165" y1="329" x2="329" y2="335" style="stroke:#000" />

<line x1="173" y1="329" x2="329" y2="327" style="stroke:#000" />

<line x1="181" y1="329" x2="329" y2="319" style="stroke:#000" />

<line x1="188" y1="328" x2="328" y2="312" style="stroke:#000" />

<line x1="195" y1="327" x2="327" y2="305" style="stroke:#000" />

<line x1="202" y1="325" x2="325" y2="298" style="stroke:#000" />

<line x1="208" y1="324" x2="324" y2="292" style="stroke:#000" />

<line x1="213" y1="322" x2="322" y2="287" style="stroke:#000" />

<line x1="219" y1="320" x2="320" y2="281" style="stroke:#000" />

<line x1="224" y1="318" x2="318" y2="276" style="stroke:#000" />

<line x1="228" y1="316" x2="316" y2="272" style="stroke:#000" />

<line x1="232" y1="313" x2="313" y2="268" style="stroke:#000" />

<line x1="236" y1="311" x2="311" y2="264" style="stroke:#000" />

<line x1="240" y1="309" x2="309" y2="260" style="stroke:#000" />

<line x1="243" y1="306" x2="306" y2="257" style="stroke:#000" />

<line x1="246" y1="304" x2="304" y2="254" style="stroke:#000" />

<line x1="249" y1="301" x2="301" y2="251" style="stroke:#000" />

<line x1="251" y1="298" x2="298" y2="249" style="stroke:#000" />

<line x1="254" y1="296" x2="296" y2="246" style="stroke:#000" />

<line x1="256" y1="293" x2="293" y2="244" style="stroke:#000" />

<line x1="257" y1="291" x2="291" y2="243" style="stroke:#000" />

<line x1="259" y1="288" x2="288" y2="241" style="stroke:#000" />

<line x1="260" y1="286" x2="286" y2="240" style="stroke:#000" />

<line x1="262" y1="284" x2="284" y2="238" style="stroke:#000" />

<line x1="263" y1="281" x2="281" y2="237" style="stroke:#000" />

<line x1="263" y1="279" x2="279" y2="237" style="stroke:#000" />

<line x1="264" y1="277" x2="277" y2="236" style="stroke:#000" />

<line x1="265" y1="275" x2="275" y2="235" style="stroke:#000" />

<line x1="265" y1="273" x2="273" y2="235" style="stroke:#000" />

<line x1="265" y1="271" x2="271" y2="235" style="stroke:#000" />

<line x1="266" y1="269" x2="269" y2="234" style="stroke:#000" />

<line x1="266" y1="268" x2="268" y2="234" style="stroke:#000" />

<line x1="266" y1="266" x2="266" y2="234" style="stroke:#000" />

<line x1="266" y1="264" x2="264" y2="234" style="stroke:#000" />

<line x1="266" y1="263" x2="263" y2="234" style="stroke:#000" />

<line x1="265" y1="262" x2="262" y2="235" style="stroke:#000" />

<line x1="265" y1="260" x2="260" y2="235" style="stroke:#000" />

<line x1="265" y1="259" x2="259" y2="235" style="stroke:#000" />

<line x1="265" y1="258" x2="258" y2="235" style="stroke:#000" />

<line x1="264" y1="257" x2="257" y2="236" style="stroke:#000" />

<line x1="264" y1="256" x2="256" y2="236" style="stroke:#000" />

<line x1="263" y1="255" x2="255" y2="237" style="stroke:#000" />

<line x1="263" y1="254" x2="254" y2="237" style="stroke:#000" />

<line x1="262" y1="253" x2="253" y2="238" style="stroke:#000" />

<line x1="262" y1="252" x2="252" y2="238" style="stroke:#000" />

<line x1="261" y1="252" x2="252" y2="239" style="stroke:#000" />

<line x1="261" y1="251" x2="251" y2="239" style="stroke:#000" />

<line x1="260" y1="250" x2="250" y2="240" style="stroke:#000" />

<line x1="260" y1="250" x2="250" y2="240" style="stroke:#000" />

<line x1="259" y1="249" x2="249" y2="241" style="stroke:#000" />

<line x1="259" y1="249" x2="249" y2="241" style="stroke:#000" />

<line x1="258" y1="249" x2="249" y2="242" style="stroke:#000" />

<line x1="258" y1="248" x2="248" y2="242" style="stroke:#000" />

<line x1="257" y1="248" x2="248" y2="243" style="stroke:#000" />

<line x1="257" y1="248" x2="248" y2="243" style="stroke:#000" />

<line x1="256" y1="248" x2="248" y2="244" style="stroke:#000" />

<line x1="256" y1="247" x2="247" y2="244" style="stroke:#000" />

<line x1="256" y1="247" x2="247" y2="244" style="stroke:#000" />

<line x1="255" y1="247" x2="247" y2="245" style="stroke:#000" />

<line x1="255" y1="247" x2="247" y2="245" style="stroke:#000" />

<line x1="254" y1="247" x2="247" y2="246" style="stroke:#000" />

<line x1="254" y1="247" x2="247" y2="246" style="stroke:#000" />

<line x1="254" y1="247" x2="247" y2="246" style="stroke:#000" />

<line x1="253" y1="247" x2="247" y2="247" style="stroke:#000" />

<line x1="253" y1="247" x2="247" y2="247" style="stroke:#000" />

<line x1="253" y1="247" x2="247" y2="247" style="stroke:#000" />

<line x1="252" y1="247" x2="247" y2="248" style="stroke:#000" />

<line x1="252" y1="247" x2="247" y2="248" style="stroke:#000" />

<line x1="252" y1="247" x2="247" y2="248" style="stroke:#000" />

<line x1="252" y1="247" x2="247" y2="248" style="stroke:#000" />

<line x1="251" y1="247" x2="247" y2="249" style="stroke:#000" />

<line x1="251" y1="247" x2="247" y2="249" style="stroke:#000" />

<line x1="251" y1="247" x2="247" y2="249" style="stroke:#000" />

<line x1="251" y1="247" x2="247" y2="249" style="stroke:#000" />

<line x1="251" y1="247" x2="247" y2="249" style="stroke:#000" />

<line x1="251" y1="248" x2="248" y2="249" style="stroke:#000" />

<line x1="250" y1="248" x2="248" y2="250" style="stroke:#000" />

<line x1="250" y1="248" x2="248" y2="250" style="stroke:#000" />

<line x1="250" y1="248" x2="248" y2="250" style="stroke:#000" />

<line x1="250" y1="248" x2="248" y2="250" style="stroke:#000" />

<line x1="250" y1="248" x2="248" y2="250" style="stroke:#000" />

<line x1="250" y1="248" x2="248" y2="250" style="stroke:#000" />

<line x1="250" y1="248" x2="248" y2="250" style="stroke:#000" />

<line x1="250" y1="248" x2="248" y2="250" style="stroke:#000" />

<line x1="250" y1="248" x2="248" y2="250" style="stroke:#000" />

<line x1="250" y1="249" x2="249" y2="250" style="stroke:#000" />

<line x1="262" y1="487" x2="487" y2="238" style="stroke:#000" />

<line x1="273" y1="474" x2="474" y2="227" style="stroke:#000" />

<line x1="282" y1="462" x2="462" y2="218" style="stroke:#000" />

<line x1="290" y1="450" x2="450" y2="210" style="stroke:#000" />

<line x1="298" y1="437" x2="437" y2="202" style="stroke:#000" />

<line x1="304" y1="426" x2="426" y2="196" style="stroke:#000" />

<line x1="310" y1="414" x2="414" y2="190" style="stroke:#000" />

<line x1="315" y1="403" x2="403" y2="185" style="stroke:#000" />

<line x1="319" y1="392" x2="392" y2="181" style="stroke:#000" />

<line x1="322" y1="381" x2="381" y2="178" style="stroke:#000" />

<line x1="324" y1="371" x2="371" y2="176" style="stroke:#000" />

<line x1="326" y1="361" x2="361" y2="174" style="stroke:#000" />

<line x1="328" y1="352" x2="352" y2="172" style="stroke:#000" />

<line x1="329" y1="343" x2="343" y2="171" style="stroke:#000" />

<line x1="329" y1="335" x2="335" y2="171" style="stroke:#000" />

<line x1="329" y1="327" x2="327" y2="171" style="stroke:#000" />

<line x1="329" y1="319" x2="319" y2="171" style="stroke:#000" />

<line x1="328" y1="312" x2="312" y2="172" style="stroke:#000" />

<line x1="327" y1="305" x2="305" y2="173" style="stroke:#000" />

<line x1="325" y1="298" x2="298" y2="175" style="stroke:#000" />

<line x1="324" y1="292" x2="292" y2="176" style="stroke:#000" />

<line x1="322" y1="287" x2="287" y2="178" style="stroke:#000" />

<line x1="320" y1="281" x2="281" y2="180" style="stroke:#000" />

<line x1="318" y1="276" x2="276" y2="182" style="stroke:#000" />

<line x1="316" y1="272" x2="272" y2="184" style="stroke:#000" />

<line x1="313" y1="268" x2="268" y2="187" style="stroke:#000" />

<line x1="311" y1="264" x2="264" y2="189" style="stroke:#000" />

<line x1="309" y1="260" x2="260" y2="191" style="stroke:#000" />

<line x1="306" y1="257" x2="257" y2="194" style="stroke:#000" />

<line x1="304" y1="254" x2="254" y2="196" style="stroke:#000" />

<line x1="301" y1="251" x2="251" y2="199" style="stroke:#000" />

<line x1="298" y1="249" x2="249" y2="202" style="stroke:#000" />

<line x1="296" y1="246" x2="246" y2="204" style="stroke:#000" />

<line x1="293" y1="244" x2="244" y2="207" style="stroke:#000" />

<line x1="291" y1="243" x2="243" y2="209" style="stroke:#000" />

<line x1="288" y1="241" x2="241" y2="212" style="stroke:#000" />

<line x1="286" y1="240" x2="240" y2="214" style="stroke:#000" />

<line x1="284" y1="238" x2="238" y2="216" style="stroke:#000" />

<line x1="281" y1="237" x2="237" y2="219" style="stroke:#000" />

<line x1="279" y1="237" x2="237" y2="221" style="stroke:#000" />

<line x1="277" y1="236" x2="236" y2="223" style="stroke:#000" />

<line x1="275" y1="235" x2="235" y2="225" style="stroke:#000" />

<line x1="273" y1="235" x2="235" y2="227" style="stroke:#000" />

<line x1="271" y1="235" x2="235" y2="229" style="stroke:#000" />

<line x1="269" y1="234" x2="234" y2="231" style="stroke:#000" />

<line x1="268" y1="234" x2="234" y2="232" style="stroke:#000" />

<line x1="266" y1="234" x2="234" y2="234" style="stroke:#000" />

<line x1="264" y1="234" x2="234" y2="236" style="stroke:#000" />

<line x1="263" y1="234" x2="234" y2="237" style="stroke:#000" />

<line x1="262" y1="235" x2="235" y2="238" style="stroke:#000" />

<line x1="260" y1="235" x2="235" y2="240" style="stroke:#000" />

<line x1="259" y1="235" x2="235" y2="241" style="stroke:#000" />

<line x1="258" y1="235" x2="235" y2="242" style="stroke:#000" />

<line x1="257" y1="236" x2="236" y2="243" style="stroke:#000" />

<line x1="256" y1="236" x2="236" y2="244" style="stroke:#000" />

<line x1="255" y1="237" x2="237" y2="245" style="stroke:#000" />

<line x1="254" y1="237" x2="237" y2="246" style="stroke:#000" />

<line x1="253" y1="238" x2="238" y2="247" style="stroke:#000" />

<line x1="252" y1="238" x2="238" y2="248" style="stroke:#000" />

<line x1="252" y1="239" x2="239" y2="248" style="stroke:#000" />

<line x1="251" y1="239" x2="239" y2="249" style="stroke:#000" />

<line x1="250" y1="240" x2="240" y2="250" style="stroke:#000" />

<line x1="250" y1="240" x2="240" y2="250" style="stroke:#000" />

<line x1="249" y1="241" x2="241" y2="251" style="stroke:#000" />

<line x1="249" y1="241" x2="241" y2="251" style="stroke:#000" />

<line x1="249" y1="242" x2="242" y2="251" style="stroke:#000" />

<line x1="248" y1="242" x2="242" y2="252" style="stroke:#000" />

<line x1="248" y1="243" x2="243" y2="252" style="stroke:#000" />

<line x1="248" y1="243" x2="243" y2="252" style="stroke:#000" />

<line x1="248" y1="244" x2="244" y2="252" style="stroke:#000" />

<line x1="247" y1="244" x2="244" y2="253" style="stroke:#000" />

<line x1="247" y1="244" x2="244" y2="253" style="stroke:#000" />

<line x1="247" y1="245" x2="245" y2="253" style="stroke:#000" />

<line x1="247" y1="245" x2="245" y2="253" style="stroke:#000" />

<line x1="247" y1="246" x2="246" y2="253" style="stroke:#000" />

<line x1="247" y1="246" x2="246" y2="253" style="stroke:#000" />

<line x1="247" y1="246" x2="246" y2="253" style="stroke:#000" />

<line x1="247" y1="247" x2="247" y2="253" style="stroke:#000" />

<line x1="247" y1="247" x2="247" y2="253" style="stroke:#000" />

<line x1="247" y1="247" x2="247" y2="253" style="stroke:#000" />

<line x1="247" y1="248" x2="248" y2="253" style="stroke:#000" />

<line x1="247" y1="248" x2="248" y2="253" style="stroke:#000" />

<line x1="247" y1="248" x2="248" y2="253" style="stroke:#000" />

<line x1="247" y1="248" x2="248" y2="253" style="stroke:#000" />

<line x1="247" y1="249" x2="249" y2="253" style="stroke:#000" />

<line x1="247" y1="249" x2="249" y2="253" style="stroke:#000" />

<line x1="247" y1="249" x2="249" y2="253" style="stroke:#000" />

<line x1="247" y1="249" x2="249" y2="253" style="stroke:#000" />

<line x1="247" y1="249" x2="249" y2="253" style="stroke:#000" />

<line x1="248" y1="249" x2="249" y2="252" style="stroke:#000" />

<line x1="248" y1="250" x2="250" y2="252" style="stroke:#000" />

<line x1="248" y1="250" x2="250" y2="252" style="stroke:#000" />

<line x1="248" y1="250" x2="250" y2="252" style="stroke:#000" />

<line x1="248" y1="250" x2="250" y2="252" style="stroke:#000" />

<line x1="248" y1="250" x2="250" y2="252" style="stroke:#000" />

<line x1="248" y1="250" x2="250" y2="252" style="stroke:#000" />

<line x1="248" y1="250" x2="250" y2="252" style="stroke:#000" />

<line x1="248" y1="250" x2="250" y2="252" style="stroke:#000" />

<line x1="248" y1="250" x2="250" y2="252" style="stroke:#000" />

<line x1="249" y1="250" x2="250" y2="251" style="stroke:#000" />

<line x1="487" y1="238" x2="238" y2="13" style="stroke:#000" />

<line x1="474" y1="227" x2="227" y2="26" style="stroke:#000" />

<line x1="462" y1="218" x2="218" y2="38" style="stroke:#000" />

<line x1="450" y1="210" x2="210" y2="50" style="stroke:#000" />

<line x1="437" y1="202" x2="202" y2="63" style="stroke:#000" />

<line x1="426" y1="196" x2="196" y2="74" style="stroke:#000" />

<line x1="414" y1="190" x2="190" y2="86" style="stroke:#000" />

<line x1="403" y1="185" x2="185" y2="97" style="stroke:#000" />

<line x1="392" y1="181" x2="181" y2="108" style="stroke:#000" />

<line x1="381" y1="178" x2="178" y2="119" style="stroke:#000" />

<line x1="371" y1="176" x2="176" y2="129" style="stroke:#000" />

<line x1="361" y1="174" x2="174" y2="139" style="stroke:#000" />

<line x1="352" y1="172" x2="172" y2="148" style="stroke:#000" />

<line x1="343" y1="171" x2="171" y2="157" style="stroke:#000" />

<line x1="335" y1="171" x2="171" y2="165" style="stroke:#000" />

<line x1="327" y1="171" x2="171" y2="173" style="stroke:#000" />

<line x1="319" y1="171" x2="171" y2="181" style="stroke:#000" />

<line x1="312" y1="172" x2="172" y2="188" style="stroke:#000" />

<line x1="305" y1="173" x2="173" y2="195" style="stroke:#000" />

<line x1="298" y1="175" x2="175" y2="202" style="stroke:#000" />

<line x1="292" y1="176" x2="176" y2="208" style="stroke:#000" />

<line x1="287" y1="178" x2="178" y2="213" style="stroke:#000" />

<line x1="281" y1="180" x2="180" y2="219" style="stroke:#000" />

<line x1="276" y1="182" x2="182" y2="224" style="stroke:#000" />

<line x1="272" y1="184" x2="184" y2="228" style="stroke:#000" />

<line x1="268" y1="187" x2="187" y2="232" style="stroke:#000" />

<line x1="264" y1="189" x2="189" y2="236" style="stroke:#000" />

<line x1="260" y1="191" x2="191" y2="240" style="stroke:#000" />

<line x1="257" y1="194" x2="194" y2="243" style="stroke:#000" />

<line x1="254" y1="196" x2="196" y2="246" style="stroke:#000" />

<line x1="251" y1="199" x2="199" y2="249" style="stroke:#000" />

<line x1="249" y1="202" x2="202" y2="251" style="stroke:#000" />

<line x1="246" y1="204" x2="204" y2="254" style="stroke:#000" />

<line x1="244" y1="207" x2="207" y2="256" style="stroke:#000" />

<line x1="243" y1="209" x2="209" y2="257" style="stroke:#000" />

<line x1="241" y1="212" x2="212" y2="259" style="stroke:#000" />

<line x1="240" y1="214" x2="214" y2="260" style="stroke:#000" />

<line x1="238" y1="216" x2="216" y2="262" style="stroke:#000" />

<line x1="237" y1="219" x2="219" y2="263" style="stroke:#000" />

<line x1="237" y1="221" x2="221" y2="263" style="stroke:#000" />

<line x1="236" y1="223" x2="223" y2="264" style="stroke:#000" />

<line x1="235" y1="225" x2="225" y2="265" style="stroke:#000" />

<line x1="235" y1="227" x2="227" y2="265" style="stroke:#000" />

<line x1="235" y1="229" x2="229" y2="265" style="stroke:#000" />

<line x1="234" y1="231" x2="231" y2="266" style="stroke:#000" />

<line x1="234" y1="232" x2="232" y2="266" style="stroke:#000" />

<line x1="234" y1="234" x2="234" y2="266" style="stroke:#000" />

<line x1="234" y1="236" x2="236" y2="266" style="stroke:#000" />

<line x1="234" y1="237" x2="237" y2="266" style="stroke:#000" />

<line x1="235" y1="238" x2="238" y2="265" style="stroke:#000" />

<line x1="235" y1="240" x2="240" y2="265" style="stroke:#000" />

<line x1="235" y1="241" x2="241" y2="265" style="stroke:#000" />

<line x1="235" y1="242" x2="242" y2="265" style="stroke:#000" />

<line x1="236" y1="243" x2="243" y2="264" style="stroke:#000" />

<line x1="236" y1="244" x2="244" y2="264" style="stroke:#000" />

<line x1="237" y1="245" x2="245" y2="263" style="stroke:#000" />

<line x1="237" y1="246" x2="246" y2="263" style="stroke:#000" />

<line x1="238" y1="247" x2="247" y2="262" style="stroke:#000" />

<line x1="238" y1="248" x2="248" y2="262" style="stroke:#000" />

<line x1="239" y1="248" x2="248" y2="261" style="stroke:#000" />

<line x1="239" y1="249" x2="249" y2="261" style="stroke:#000" />

<line x1="240" y1="250" x2="250" y2="260" style="stroke:#000" />

<line x1="240" y1="250" x2="250" y2="260" style="stroke:#000" />

<line x1="241" y1="251" x2="251" y2="259" style="stroke:#000" />

<line x1="241" y1="251" x2="251" y2="259" style="stroke:#000" />

<line x1="242" y1="251" x2="251" y2="258" style="stroke:#000" />

<line x1="242" y1="252" x2="252" y2="258" style="stroke:#000" />

<line x1="243" y1="252" x2="252" y2="257" style="stroke:#000" />

<line x1="243" y1="252" x2="252" y2="257" style="stroke:#000" />

<line x1="244" y1="252" x2="252" y2="256" style="stroke:#000" />

<line x1="244" y1="253" x2="253" y2="256" style="stroke:#000" />

<line x1="244" y1="253" x2="253" y2="256" style="stroke:#000" />

<line x1="245" y1="253" x2="253" y2="255" style="stroke:#000" />

<line x1="245" y1="253" x2="253" y2="255" style="stroke:#000" />

<line x1="246" y1="253" x2="253" y2="254" style="stroke:#000" />

<line x1="246" y1="253" x2="253" y2="254" style="stroke:#000" />

<line x1="246" y1="253" x2="253" y2="254" style="stroke:#000" />

<line x1="247" y1="253" x2="253" y2="253" style="stroke:#000" />

<line x1="247" y1="253" x2="253" y2="253" style="stroke:#000" />

<line x1="247" y1="253" x2="253" y2="253" style="stroke:#000" />

<line x1="248" y1="253" x2="253" y2="252" style="stroke:#000" />

<line x1="248" y1="253" x2="253" y2="252" style="stroke:#000" />

<line x1="248" y1="253" x2="253" y2="252" style="stroke:#000" />

<line x1="248" y1="253" x2="253" y2="252" style="stroke:#000" />

<line x1="249" y1="253" x2="253" y2="251" style="stroke:#000" />

<line x1="249" y1="253" x2="253" y2="251" style="stroke:#000" />

<line x1="249" y1="253" x2="253" y2="251" style="stroke:#000" />

<line x1="249" y1="253" x2="253" y2="251" style="stroke:#000" />

<line x1="249" y1="253" x2="253" y2="251" style="stroke:#000" />

<line x1="249" y1="252" x2="252" y2="251" style="stroke:#000" />

<line x1="250" y1="252" x2="252" y2="250" style="stroke:#000" />

<line x1="250" y1="252" x2="252" y2="250" style="stroke:#000" />

<line x1="250" y1="252" x2="252" y2="250" style="stroke:#000" />

<line x1="250" y1="252" x2="252" y2="250" style="stroke:#000" />

<line x1="250" y1="252" x2="252" y2="250" style="stroke:#000" />

<line x1="250" y1="252" x2="252" y2="250" style="stroke:#000" />

<line x1="250" y1="252" x2="252" y2="250" style="stroke:#000" />

<line x1="250" y1="252" x2="252" y2="250" style="stroke:#000" />

<line x1="250" y1="252" x2="252" y2="250" style="stroke:#000" />

<line x1="250" y1="251" x2="251" y2="250" style="stroke:#000" />

</svg>

